<svg width="900" height="980" viewBox="0 0 900 980" xmlns="http://www.w3.org/2000/svg">
  <defs>
    <linearGradient id="cape" x1="0" y1="0" x2="1" y2="1">
      <stop offset="0%" stop-color="#2f63ff"/>
      <stop offset="100%" stop-color="#16b9a5"/>
    </linearGradient>
    <linearGradient id="armor" x1="0" y1="0" x2="0" y2="1">
      <stop offset="0%" stop-color="#fefdfb"/>
      <stop offset="100%" stop-color="#dce8ff"/>
    </linearGradient>
    <radialGradient id="halo" cx="0.5" cy="0.4" r="0.55">
      <stop offset="0%" stop-color="#ffd870" stop-opacity="0.9"/>
      <stop offset="100%" stop-color="#ffd870" stop-opacity="0"/>
    </radialGradient>
  </defs>
  <rect width="900" height="980" fill="none"/>
  <ellipse cx="450" cy="220" rx="270" ry="180" fill="url(#halo)"/>
  <path d="M210 870 C220 650, 270 500, 370 430 C330 610, 350 780, 410 930 Z" fill="url(#cape)"/>
  <path d="M690 870 C680 650, 630 500, 530 430 C570 610, 550 780, 490 930 Z" fill="url(#cape)"/>
  <g transform="translate(450 500)">
    <ellipse cx="0" cy="350" rx="170" ry="30" fill="#1a1d3a" opacity="0.25"/>
    <path d="M-140 320 L-90 110 L90 110 L140 320 Z" fill="url(#armor)" stroke="#1b2b57" stroke-width="8"/>
    <path d="M-90 110 Q0 65 90 110" fill="#ecf4ff" stroke="#1b2b57" stroke-width="8"/>
    <rect x="-58" y="165" width="116" height="95" rx="20" fill="#e4f0ff" stroke="#1b2b57" stroke-width="7"/>
    <circle cx="0" cy="212" r="16" fill="#ff7a3d"/>
    <rect x="-164" y="150" width="72" height="190" rx="30" fill="#edf4ff" stroke="#1b2b57" stroke-width="8"/>
    <rect x="92" y="150" width="72" height="190" rx="30" fill="#edf4ff" stroke="#1b2b57" stroke-width="8"/>
    <rect x="-120" y="338" width="80" height="190" rx="30" fill="#e7f0ff" stroke="#1b2b57" stroke-width="8"/>
    <rect x="40" y="338" width="80" height="190" rx="30" fill="#e7f0ff" stroke="#1b2b57" stroke-width="8"/>
    <circle cx="0" cy="10" r="108" fill="#ffe8c8" stroke="#1b2b57" stroke-width="8"/>
    <path d="M-80 -20 Q0 -110 80 -20" fill="#1b2b57"/>
    <circle cx="-32" cy="10" r="14" fill="#1b2b57"/>
    <circle cx="32" cy="10" r="14" fill="#1b2b57"/>
    <path d="M-42 60 Q0 85 42 60" fill="none" stroke="#1b2b57" stroke-width="8" stroke-linecap="round"/>
    <path d="M-188 168 L-282 220 L-248 280 L-152 222 Z" fill="#ffcf66" stroke="#1b2b57" stroke-width="8"/>
    <path d="M188 168 L282 220 L248 280 L152 222 Z" fill="#ffcf66" stroke="#1b2b57" stroke-width="8"/>
  </g>
  <text x="78" y="905" fill="#1b2b57" font-size="54" font-family="Verdana" font-weight="700">Astra // Arena Guardian</text>
</svg>